<svg width="56" height="56" viewBox="0 0 56 56" fill="none" xmlns="http://www.w3.org/2000/svg">
<path d="M35.1047 27.1047C35.3624 27.1047 35.5727 27.1928 35.7355 27.3692C35.9118 27.532 36 27.7422 36 28C36 28.2578 35.9118 28.4748 35.7355 28.6512C35.5727 28.814 35.3624 28.8953 35.1047 28.8953H28.8953V35.0843C28.8953 35.3421 28.8072 35.5591 28.6308 35.7355C28.468 35.9118 28.2578 36 28 36C27.7422 36 27.5252 35.9118 27.3488 35.7355C27.186 35.5591 27.1047 35.3421 27.1047 35.0843V28.8953H20.8953C20.6376 28.8953 20.4205 28.814 20.2442 28.6512C20.0814 28.4748 20 28.2578 20 28C20 27.7422 20.0814 27.532 20.2442 27.3692C20.4205 27.1928 20.6376 27.1047 20.8953 27.1047H27.1047V20.8953C27.1047 20.6376 27.186 20.4273 27.3488 20.2645C27.5252 20.0882 27.7422 20 28 20C28.2578 20 28.468 20.0882 28.6308 20.2645C28.8072 20.4273 28.8953 20.6376 28.8953 20.8953V27.1047H35.1047Z" fill="url(#paint0_linear)"/>
<defs>
<linearGradient id="paint0_linear" x1="36" y1="36" x2="24.8968" y2="17.1202" gradientUnits="userSpaceOnUse">
<stop stop-color="#15B6D6"/>
<stop offset="1" stop-color="#15D6D6"/>
</linearGradient>
</defs>
</svg>
